<svg xmlns="http://www.w3.org/2000/svg" xmlns:xlink="http://www.w3.org/1999/xlink" preserveAspectRatio="xMidYMid" width="45" height="82" viewBox="0 0 45 82">
  <defs>
    <style>
      .cls-1 {
        fill: #fff;
        fill-rule: evenodd;
      }
    </style>
  </defs>
  <path d="M42.187,62.096 C41.416,62.096 40.718,61.788 40.210,61.290 L40.178,61.300 L16.071,42.990 L16.071,42.945 C15.575,42.443 15.268,41.757 15.268,40.999 C15.268,40.241 15.575,39.556 16.071,39.053 L16.071,39.009 L40.178,20.698 L40.210,20.709 C40.718,20.211 41.416,19.902 42.187,19.902 C43.598,19.902 44.756,20.935 44.958,22.277 L45.000,22.290 L45.000,59.708 L44.958,59.722 C44.756,61.064 43.598,62.096 42.187,62.096 ZM28.928,23.087 L28.315,23.606 L8.036,39.009 L8.036,39.053 C7.540,39.556 7.232,40.241 7.232,40.999 C7.232,41.757 7.540,42.443 8.036,42.945 L8.036,42.990 L28.315,58.393 L28.928,58.912 L28.928,58.956 C29.424,59.458 29.732,60.144 29.732,60.902 C29.732,61.660 29.424,62.346 28.928,62.848 L28.928,62.893 L4.821,81.203 L4.789,81.193 C4.281,81.691 3.584,81.999 2.812,81.999 C1.402,81.999 0.244,80.967 0.042,79.625 L-0.000,79.611 L-0.000,40.601 L-0.000,2.388 L0.042,2.374 C0.244,1.032 1.402,-0.001 2.812,-0.001 C3.584,-0.001 4.281,0.308 4.789,0.806 L4.821,0.795 L28.928,19.106 L28.928,19.150 C29.424,19.653 29.732,20.338 29.732,21.096 C29.732,21.854 29.424,22.540 28.928,23.042 L28.928,23.087 Z" class="cls-1"/>
</svg>
