<svg xmlns="http://www.w3.org/2000/svg" preserveAspectRatio="xMidYMid" width="45" height="82" viewBox="0 0 45 82"><defs><style>.cls-1{fill:#fff;fill-rule:evenodd}</style></defs><path d="M42.187 62.096a2.815 2.815 0 0 1-1.977-.806l-.032.01-24.107-18.31v-.045a2.76 2.76 0 0 1 0-3.892v-.044l24.107-18.311.032.011a2.816 2.816 0 0 1 1.977-.807 2.797 2.797 0 0 1 2.771 2.375l.042.013v37.418l-.042.014a2.796 2.796 0 0 1-2.771 2.374zM28.928 23.087l-.613.519L8.036 39.009v.044a2.762 2.762 0 0 0-.804 1.946c0 .758.308 1.444.804 1.946v.045l20.279 15.403.613.519v.044a2.76 2.76 0 0 1 0 3.892v.045L4.821 81.203l-.032-.01a2.813 2.813 0 0 1-1.977.806 2.796 2.796 0 0 1-2.77-2.374L0 79.611V2.388l.042-.014a2.797 2.797 0 0 1 2.77-2.375c.772 0 1.469.309 1.977.807l.032-.011 24.107 18.311v.044c.496.503.804 1.188.804 1.946a2.76 2.76 0 0 1-.804 1.946v.045z" class="cls-1"/></svg>